<svg xmlns="http://www.w3.org/2000/svg" viewBox="0 0 32 32"><defs><linearGradient id="sol-gradient" x1="0%" y1="0%" x2="100%" y2="100%"><stop offset="0%" stop-color="#00FFA3"/><stop offset="100%" stop-color="#DC1FFF"/></linearGradient></defs><circle cx="16" cy="16" r="16" fill="url(#sol-gradient)"/><path fill="#FFF" d="M9.925 19.687a.55.55 0 01.388-.16h12.97c.244 0 .367.295.194.468l-2.601 2.601a.55.55 0 01-.388.16H7.518a.275.275 0 01-.194-.468l2.601-2.601zm0-10.283a.55.55 0 01.388-.16h12.97c.244 0 .367.295.194.468l-2.601 2.601a.55.55 0 01-.388.16H7.518a.275.275 0 01-.194-.468l2.601-2.601zm12.97 4.989a.55.55 0 00-.388-.16H9.537a.275.275 0 00-.194.468l2.601 2.601c.103.103.243.16.388.16h12.97c.244 0 .367-.295.194-.468l-2.601-2.601z"/></svg>